<svg xmlns="http://www.w3.org/2000/svg" viewBox="195 110 305 180" role="img" aria-label="OlanchoNet icon">
  <path fill="#4EB648" d="M 311.949 123.826 C 304.590 125.747, 297.304 130.040, 291.800 135.697 C 288.481 139.108, 208 276.846, 208 279.115 C 208 279.602, 213.756 280, 220.790 280 L 233.580 280 C 248 280, 265 242, 269.487 217.750 C 292.969 177.041, 306.803 154.064, 309.464 151.351 C 319.220 141.407, 334.005 143.685, 342.064 156.373 C 346.5 163, 344 165.5, 343.407 167.373 C 334.581 186.328, 353.659 205.508, 372.500 196.623 C 381.151 192.543, 385 186.344, 385 176.492 C 385 167.585, 379.954 159.967, 371.798 156.560 C 368.897 155.348, 367.180 153.444, 363.864 147.767 C 355.999 134.301, 346.871 127.025, 333.458 123.531 C 326.003 121.589, 320.211 121.669, 311.949 123.826"/>
  <path fill="#0076BB" d="M 460.605 126.250 C 459.241 128.588, 443.060 156.600, 424.647 188.500 C 406.233 220.400, 389.533 248.402, 387.535 250.726 C 378.837 260.845, 363.180 259.368, 355.308 247.685 C 351.5 244, 353.5 239, 354.548 237.724 C 366.655 211.721, 332.971 189.579, 313.722 210.886 C 301.495 224.420, 308.201 246.535, 325.908 251.073 C 330.149 252.160, 330.926 252.844, 334.048 258.232 C 342.319 272.506, 355.893 280.158, 372.947 280.158 C 386.210 280.158, 396.748 275.519, 405.434 265.859 C 410.811 259.878, 489.431 124.507, 488.450 122.918 C 488.137 122.413, 482.302 122, 475.483 122 L 463.084 122 C 461.5 122, 460.5 123.5, 460.605 126.250"/>
</svg>